<?xml version="1.0" encoding="UTF-8"?>
<svg id="Layer_1" data-name="Layer 1" xmlns="http://www.w3.org/2000/svg" viewBox="0 0 684.42 711.93">
  <defs>
    <style>
      .cls-1 {
        fill: #005eeb;
      }

      .cls-2 {
        fill: #050d54;
      }

      .cls-3 {
        fill: #fff;
      }
    </style>
  </defs>
  <rect class="cls-2" width="684.42" height="711.93"/>
  <path class="cls-3" d="m227.44,503.72v-164.77c0-5.39,7.11-7.33,9.85-2.69l170.31,288.06c.95,1.61,2.68,2.6,4.56,2.6h63.97c4.1,0,6.65-4.46,4.55-7.99L235.54,205.38c-.95-1.61-2.68-2.59-4.55-2.59h-63.88c-2.92,0-5.29,2.37-5.29,5.29v295.64c0,2.92,2.37,5.29,5.29,5.29h55.03c2.92,0,5.29-2.37,5.29-5.29Z"/>
  <path class="cls-1" d="m203.74,93.02l245.14,413.53c.95,1.61,2.68,2.59,4.55,2.59h63.88c2.92,0,5.29-2.37,5.29-5.29V208.22c0-2.92-2.37-5.29-5.29-5.29h-55.03c-2.92,0-5.29,2.37-5.29,5.29v164.77c0,5.39-7.11,7.33-9.85,2.69L276.82,87.63c-.95-1.61-2.68-2.6-4.56-2.6h-63.97c-4.1,0-6.65,4.46-4.55,7.99Z"/>
</svg>
