<svg
        xmlns="http://www.w3.org/2000/svg"
        width="32"
        height="32"
        viewBox="0 0 32 32"
        fill="none"
>
    <circle cx="16" cy="16" r="16" fill="white"/>
    <path
            d="M28.6666 16C28.6666 23.6078 23.6078 28.6666 16 28.6666M28.6666 16C28.6666 8.39221 23.6078 3.33337 16 3.33337M28.6666 16H3.33337M16 28.6666C8.39221 28.6666 3.33337 23.6078 3.33337 16M16 28.6666C19.3285 24.7072 21.6715 20.291 21.7912 16C21.6715 11.7089 19.3285 7.29281 16 3.33337M16 28.6666C12.6715 24.7072 10.3285 20.291 10.2088 16C10.3285 11.7089 12.6715 7.29281 16 3.33337M3.33337 16C3.33337 8.39221 10.878 3.33337 16 3.33337"
            stroke="#0059C8"
            stroke-width="2"
            stroke-linecap="round"
            stroke-linejoin="round"
    />
</svg>
